<svg xmlns="http://www.w3.org/2000/svg" viewBox="0 0 59 59" fill="#fff" xmlns:v="https://vecta.io/nano"><path d="M59 41V15h-9a1 1 0 1 0 0 2h7v22H11V17h7a1 1 0 1 0 0-2h-7V7a1 1 0 0 0-1-1H7.858c-.447-1.72-2-3-3.858-3-2.206 0-4 1.794-4 4s1.794 4 4 4c1.858 0 3.411-1.28 3.858-3H9v7 1 24 1 6a1 1 0 0 0 1 1h7.031C15.806 48.912 15 50.359 15 52c0 2.757 2.243 5 5 5s5-2.243 5-5c0-1.641-.806-3.088-2.031-4h18.062C39.806 48.912 39 50.359 39 52c0 2.757 2.243 5 5 5s5-2.243 5-5c0-1.641-.806-3.088-2.031-4H53a1 1 0 1 0 0-2H11v-5h48zM4 9c-1.103 0-2-.897-2-2s.897-2 2-2c.737 0 1.375.405 1.722 1H5a1 1 0 1 0 0 2h.722C5.375 8.595 4.737 9 4 9zm16 46c-1.654 0-3-1.346-3-3s1.346-3 3-3 3 1.346 3 3-1.346 3-3 3zm24 0c-1.654 0-3-1.346-3-3s1.346-3 3-3 3 1.346 3 3-1.346 3-3 3zM34 30a14.02 14.02 0 0 0 14-14A14.02 14.02 0 0 0 34 2a14.02 14.02 0 0 0-14 14 14.02 14.02 0 0 0 14 14zm0-26c6.617 0 12 5.383 12 12s-5.383 12-12 12-12-5.383-12-12S27.383 4 34 4zm-7 12c.256 0 .512-.098.707-.293L33 10.414V24a1 1 0 1 0 2 0V10.414l5.293 5.293c.195.195.451.293.707.293s.512-.098.707-.293a1 1 0 0 0 0-1.414l-6.999-6.999a.99.99 0 0 0-.326-.217 1 1 0 0 0-1.09.217l-6.999 6.999a1 1 0 0 0 0 1.414c.195.195.451.293.707.293z"/></svg>