<svg id="Layer_1" data-name="Layer 1" xmlns="http://www.w3.org/2000/svg" viewBox="0 0 508.45 509.72"><defs><style>.cls-1{opacity:0.5;}.cls-2{fill:#e2e2e2;}</style></defs><g class="cls-1"><path class="cls-2" d="M311.62-.08c-3.9-.2-252,48.9-280.7,55.5C9,60.52,5.52,62,2.42,67.22c-3.4,5.8-3.2,11.6.5,25,5.6,19.8,50,151.3,71.3,211.1,40.5,113.7,58.2,150.9,83.7,176.5,21.7,21.8,47.6,31,83.5,29.7,23-.8,13.2,3.1,153.5-60.4,15.1-6.9,35-15.8,44.2-19.9,25.6-11.4,33.8-16.5,43.9-27.1,16.6-17.5,24.6-37.8,25.4-64.8.3-11.6-1.5-30.7-3.5-35.9L504,299l-10.8,4.2c-13.2,5.3-107,43.1-167.1,67.4-24.3,9.9-44.5,18.2-44.8,18.5s-1,6.7-1.5,14.4c-1.8,26.1-7.3,41.7-18.4,52.8a58.7,58.7,0,0,1-12,9c-5.6,2.8-6.8,3-19.4,3.3-11.7.3-14.3.1-20.3-1.9-22.4-7.2-39.4-28.6-59.3-74.4-8.9-20.5-21.3-53-38.9-101.5-18.5-51.2-67-197-65.9-198,.9-.8,9.9-2.6,145.3-29.4,115.6-22.9,106-21.1,107-20,.4.5,4.4,10.8,8.8,22.9s13.2,36.2,19.5,53.5c66.7,182.5,62.8,172.8,70.7,177.5,4.6,2.6,12.3,2.6,17.5-.1s9.6-9,10.2-14.5c.5-4.4-5.3-22.8-18-57.9-2.5-6.9-10.5-28.9-17.7-49-15.5-42.8-48.6-132.5-56.5-153.1-5.9-15.4-9.2-19.9-15.9-21.8A23.56,23.56,0,0,0,311.62-.08Z" transform="translate(0 0.08)"/><path class="cls-2" d="M265.32,111.82c-11.2,4.8-14.6,21.3-6.1,30,4.2,4.3,8.6,6.1,15.2,6.1,14,.2,24-12,20.5-24.9-1.2-4.6-8.4-11.8-12.7-12.8a36.8,36.8,0,0,1-3.8-.9C276.52,108.72,269.42,110.12,265.32,111.82Z" transform="translate(0 0.08)"/><path class="cls-2" d="M216.12,127.82c-6.5,0-80.2,19.7-94.1,25.3a18.72,18.72,0,0,0-8.9,6.7c-3.2,4.2-3.4,4.8-3,11,.3,5.1,1,7.4,3.2,10.7,3.1,4.7,9.4,8.3,14.4,8.3,4,0,22-4.3,51.7-12.5,35-9.6,45.6-13,48.7-16a19.27,19.27,0,0,0-4.1-31.5A23,23,0,0,0,216.12,127.82Z" transform="translate(0 0.08)"/><path class="cls-2" d="M296.32,193.62c-19.2,9.9-12.5,36.7,9.2,36.6,13.8-.1,23.8-11.9,20.4-24.3-1.3-4.8-6.5-11.1-11.3-13.5C310.52,190.22,301.72,190.82,296.32,193.62Z" transform="translate(0 0.08)"/><path class="cls-2" d="M252.42,208.82c-7.9,0-94.8,28.3-100.4,32.7-8.4,6.6-9.3,20.1-1.8,28.1,5.3,5.7,11.6,6.9,22.1,4.2,9-2.3,72.2-22.8,81.6-26.5,7.6-3,11.4-6.3,13.6-12.2,3.6-9.3-.1-18.8-9.2-24A15.49,15.49,0,0,0,252.42,208.82Z" transform="translate(0 0.08)"/><path class="cls-2" d="M319.72,276.72c-2.6,4.1-2.9,5.3-2.6,11.2.3,5.3.9,7.3,3,10.2,9.1,11.8,29.8,9.7,35.9-3.8,4.7-10.3.2-21.4-10.6-26.1C337,264.52,325,268.52,319.72,276.72Z" transform="translate(0 0.08)"/><path class="cls-2" d="M220.92,307.42c-16.9,5.5-30.8,10.7-34,12.6-7.2,4.4-10.4,10.1-9.7,17.6a25.27,25.27,0,0,0,2.7,8.8c2.5,4,11.2,9.4,15.1,9.4s16-3.6,53.9-16.1c37-12.2,47.2-16.5,49.4-20.7,5.7-11.1,2.7-22.9-7.2-28.2C283.72,286.92,279.82,287.92,220.92,307.42Z" transform="translate(0 0.08)"/></g></svg>